<?xml version="1.0" standalone="no"?>
<!DOCTYPE svg PUBLIC "-//W3C//DTD SVG 20010904//EN"
 "http://www.w3.org/TR/2001/REC-SVG-20010904/DTD/svg10.dtd">
<svg version="1.0" xmlns="http://www.w3.org/2000/svg"
 width="300.000000pt" height="300.000000pt" viewBox="0 0 300.000000 300.000000"
 preserveAspectRatio="xMidYMid meet">
<metadata>
Created by potrace 1.11, written by Peter Selinger 2001-2013
</metadata>
<g transform="translate(0.000000,300.000000) scale(0.100000,-0.100000)"
fill="#000000" stroke="none">
<path d="M818 2985 c-7 -7 -274 -18 -463 -20 -208 -2 -232 -5 -277 -37 -49
-34 -81 -203 -60 -317 7 -36 7 -64 0 -80 -14 -37 -13 -367 2 -420 11 -41 7
-239 -5 -302 -11 -53 -12 -198 -3 -264 13 -87 12 -315 -3 -413 -6 -41 -8 -86
-4 -100 4 -15 8 -226 10 -468 3 -455 5 -470 44 -501 28 -23 149 -55 166 -46
10 6 47 4 98 -4 76 -13 247 -10 270 4 20 12 385 11 462 -2 44 -7 123 -11 175
-9 52 2 102 3 110 2 54 -3 1298 0 1396 3 98 3 124 7 138 21 10 10 24 18 31 18
8 0 27 17 42 37 22 29 28 48 29 92 1 31 5 112 8 181 4 74 2 155 -5 200 -17
112 -18 331 -3 450 8 65 11 149 7 220 -5 110 -10 436 -11 810 -1 295 -1 330
-6 495 -12 400 -10 390 -103 425 -66 25 -109 27 -313 15 -80 -4 -233 -9 -340
-11 -107 -1 -202 -3 -210 -3 -8 -1 -116 1 -240 5 -317 9 -343 9 -456 0 -81 -6
-111 -5 -155 8 -40 12 -91 16 -191 15 -75 0 -138 -2 -140 -4z m1984 -137 c45
-34 46 -43 48 -309 1 -118 3 -275 3 -349 1 -74 0 -209 -3 -300 -2 -91 -2 -228
-1 -305 4 -155 -6 -524 -16 -680 -8 -108 -8 -184 0 -255 7 -58 18 -284 20
-382 1 -98 -11 -115 -86 -117 -29 -1 -68 -3 -86 -6 -44 -6 -393 -18 -486 -17
-38 1 -155 3 -260 6 -104 3 -235 1 -290 -4 -243 -22 -315 -26 -370 -17 -22 3
-98 9 -170 12 -71 3 -197 10 -280 15 -89 6 -166 6 -188 1 -49 -12 -458 -2
-474 11 -6 5 -12 17 -13 26 0 9 -4 96 -8 192 -6 156 -4 211 12 328 3 18 -2 59
-10 90 -15 55 -14 151 2 268 4 28 1 49 -9 65 -13 22 -13 32 5 104 20 82 20
144 -1 315 -5 36 -7 81 -5 100 2 19 3 123 2 230 -1 272 2 382 11 475 11 113 1
338 -18 411 -5 17 -5 38 0 47 12 21 68 38 99 31 71 -15 149 -16 196 -1 37 12
107 18 289 21 132 3 249 6 260 8 11 1 52 -1 90 -5 119 -12 647 -12 675 0 20 8
30 8 45 -3 23 -17 52 -17 133 0 41 8 65 9 69 3 7 -12 647 5 661 18 2 1 29 2
61 1 46 -1 65 -7 93 -28z"/>
<path d="M1815 2806 c-11 -8 -17 -16 -14 -16 4 0 3 -17 -2 -37 -6 -28 -3 -64
12 -133 20 -97 22 -241 2 -261 -5 -5 -45 -16 -89 -25 -77 -14 -103 -19 -181
-29 -79 -10 -137 -20 -168 -29 -5 -1 -32 -7 -60 -11 -27 -5 -53 -10 -57 -11
-5 -1 -19 -2 -33 -3 -22 -1 -24 -3 -14 -28 25 -67 43 -93 81 -118 71 -47 113
-57 241 -56 109 1 197 -11 197 -26 0 -31 -40 -154 -73 -223 -22 -47 -48 -104
-58 -128 -10 -24 -44 -69 -74 -101 -31 -32 -59 -71 -64 -87 -11 -40 -5 -126
14 -190 l15 -53 93 1 c77 2 99 -2 134 -20 23 -12 44 -26 47 -31 7 -11 -64
-155 -119 -241 -23 -36 -63 -90 -90 -120 -64 -72 -107 -163 -99 -210 6 -36 32
-113 55 -163 21 -46 75 -67 176 -68 48 0 106 -1 128 -2 40 -1 93 3 325 27 69
8 157 13 196 12 68 -1 73 -3 116 -41 45 -40 152 -134 219 -193 59 -51 94 -41
128 37 33 77 37 145 12 232 -19 71 -25 95 -37 168 -7 44 -50 160 -104 281 -35
79 -50 101 -86 128 -43 32 -47 33 -112 26 -37 -3 -74 -8 -82 -9 -8 -2 -22 -4
-30 -4 -8 -1 -26 -18 -40 -38 -14 -20 -42 -54 -63 -76 l-37 -38 10 -62 c14
-87 13 -95 -14 -112 -24 -16 -33 -18 -116 -29 -171 -23 -204 -25 -234 -12
l-28 11 49 65 c27 36 70 91 96 123 49 60 175 245 240 352 20 33 72 95 116 137
107 103 143 174 116 228 -12 23 -67 79 -107 109 -9 7 -32 15 -50 18 -18 2 -53
8 -77 13 -92 17 -112 -1 -221 -190 -73 -127 -86 -140 -128 -134 -41 7 -81 21
-98 35 -16 13 32 138 140 363 47 98 86 182 86 186 0 11 38 18 140 25 47 4 105
8 130 10 25 2 83 7 130 11 90 7 122 18 157 56 34 37 42 67 29 119 -20 75 -47
111 -106 141 -52 26 -60 27 -145 21 -120 -9 -165 -8 -207 6 l-35 12 22 98 21
98 -20 60 c-27 78 -35 87 -114 124 -77 37 -157 48 -187 25z"/>
<path d="M630 2587 c-29 -4 -94 -18 -144 -32 -81 -22 -129 -32 -162 -34 -16
-1 -10 -76 9 -105 25 -37 64 -74 110 -103 39 -25 50 -27 167 -28 69 0 130 -4
136 -8 8 -4 8 -23 3 -59 -5 -29 -12 -75 -15 -103 -4 -27 -13 -55 -21 -61 -9
-6 -110 -48 -227 -94 -116 -45 -213 -84 -215 -86 -2 -2 1 -28 8 -57 l13 -53
-51 -105 c-78 -159 -82 -182 -53 -309 26 -110 48 -168 81 -209 18 -24 20 -24
87 -13 38 7 143 14 234 16 164 3 165 3 203 -23 37 -25 38 -27 32 -76 -6 -58
-24 -193 -29 -215 -6 -30 -19 -115 -18 -120 2 -19 -26 -24 -105 -20 -48 3
-140 5 -203 5 -113 0 -114 0 -129 -27 -14 -25 -13 -32 19 -110 74 -182 76
-186 143 -229 33 -22 86 -46 117 -55 30 -8 93 -26 139 -40 100 -30 115 -27
160 39 72 105 129 251 146 377 11 76 23 133 38 180 8 25 18 67 22 93 8 57 9
61 29 147 9 36 16 86 16 111 0 41 -4 51 -36 78 -62 55 -116 84 -209 112 -80
24 -100 27 -180 22 -49 -4 -125 -6 -168 -6 -71 -1 -80 2 -104 26 l-27 26 28
83 c57 171 110 220 276 253 80 16 133 41 172 79 21 22 97 165 161 306 6 14 22
42 35 64 20 32 24 52 24 125 1 71 -3 95 -23 136 -22 46 -30 52 -94 80 -66 28
-78 30 -206 30 -74 0 -159 -3 -189 -8z"/>
</g>
</svg>
